# Tiled2Unity generated file. Do not modify by hand.
# Wavefront file for 'finaltilemap_mesh_0001.obj'

# Vertices (Count = 1076)
v -26 -14 0
v -27 -14 0
v -27 -13 0
v -26 -13 0
v -27 -14 0
v -28 -14 0
v -28 -13 0
v -27 -13 0
v -28 -14 0
v -29 -14 0
v -29 -13 0
v -28 -13 0
v -29 -14 0
v -30 -14 0
v -30 -13 0
v -29 -13 0
v -30 -14 0
v -31 -14 0
v -31 -13 0
v -30 -13 0
v -31 -14 0
v -32 -14 0
v -32 -13 0
v -31 -13 0
v -32 -14 0
v -33 -14 0
v -33 -13 0
v -32 -13 0
v -33 -14 0
v -34 -14 0
v -34 -13 0
v -33 -13 0
v -34 -14 0
v -35 -14 0
v -35 -13 0
v -34 -13 0
v -35 -14 0
v -36 -14 0
v -36 -13 0
v -35 -13 0
v -36 -14 0
v -37 -14 0
v -37 -13 0
v -36 -13 0
v -37 -14 0
v -38 -14 0
v -38 -13 0
v -37 -13 0
v -38 -14 0
v -39 -14 0
v -39 -13 0
v -38 -13 0
v -39 -14 0
v -40 -14 0
v -40 -13 0
v -39 -13 0
v -40 -14 0
v -41 -14 0
v -41 -13 0
v -40 -13 0
v -41 -14 0
v -42 -14 0
v -42 -13 0
v -41 -13 0
v -42 -14 0
v -43 -14 0
v -43 -13 0
v -42 -13 0
v -43 -14 0
v -44 -14 0
v -44 -13 0
v -43 -13 0
v -44 -14 0
v -45 -14 0
v -45 -13 0
v -44 -13 0
v -45 -14 0
v -46 -14 0
v -46 -13 0
v -45 -13 0
v -46 -14 0
v -47 -14 0
v -47 -13 0
v -46 -13 0
v -47 -14 0
v -48 -14 0
v -48 -13 0
v -47 -13 0
v -48 -14 0
v -49 -14 0
v -49 -13 0
v -48 -13 0
v -49 -14 0
v -50 -14 0
v -50 -13 0
v -49 -13 0
v -50 -14 0
v -51 -14 0
v -51 -13 0
v -50 -13 0
v -26 -15 0
v -27 -15 0
v -27 -14 0
v -26 -14 0
v -27 -15 0
v -28 -15 0
v -28 -14 0
v -27 -14 0
v -28 -15 0
v -29 -15 0
v -29 -14 0
v -28 -14 0
v -29 -15 0
v -30 -15 0
v -30 -14 0
v -29 -14 0
v -30 -15 0
v -31 -15 0
v -31 -14 0
v -30 -14 0
v -31 -15 0
v -32 -15 0
v -32 -14 0
v -31 -14 0
v -32 -15 0
v -33 -15 0
v -33 -14 0
v -32 -14 0
v -33 -15 0
v -34 -15 0
v -34 -14 0
v -33 -14 0
v -34 -15 0
v -35 -15 0
v -35 -14 0
v -34 -14 0
v -35 -15 0
v -36 -15 0
v -36 -14 0
v -35 -14 0
v -36 -15 0
v -37 -15 0
v -37 -14 0
v -36 -14 0
v -37 -15 0
v -38 -15 0
v -38 -14 0
v -37 -14 0
v -38 -15 0
v -39 -15 0
v -39 -14 0
v -38 -14 0
v -39 -15 0
v -40 -15 0
v -40 -14 0
v -39 -14 0
v -40 -15 0
v -41 -15 0
v -41 -14 0
v -40 -14 0
v -41 -15 0
v -42 -15 0
v -42 -14 0
v -41 -14 0
v -42 -15 0
v -43 -15 0
v -43 -14 0
v -42 -14 0
v -43 -15 0
v -44 -15 0
v -44 -14 0
v -43 -14 0
v -44 -15 0
v -45 -15 0
v -45 -14 0
v -44 -14 0
v -45 -15 0
v -46 -15 0
v -46 -14 0
v -45 -14 0
v -46 -15 0
v -47 -15 0
v -47 -14 0
v -46 -14 0
v -47 -15 0
v -48 -15 0
v -48 -14 0
v -47 -14 0
v -48 -15 0
v -49 -15 0
v -49 -14 0
v -48 -14 0
v -49 -15 0
v -50 -15 0
v -50 -14 0
v -49 -14 0
v -50 -15 0
v -51 -15 0
v -51 -14 0
v -50 -14 0
v 0 -16 0
v -1 -16 0
v -1 -15 0
v 0 -15 0
v -1 -16 0
v -2 -16 0
v -2 -15 0
v -1 -15 0
v -2 -16 0
v -3 -16 0
v -3 -15 0
v -2 -15 0
v -3 -16 0
v -4 -16 0
v -4 -15 0
v -3 -15 0
v -4 -16 0
v -5 -16 0
v -5 -15 0
v -4 -15 0
v -5 -16 0
v -6 -16 0
v -6 -15 0
v -5 -15 0
v -6 -16 0
v -7 -16 0
v -7 -15 0
v -6 -15 0
v -7 -16 0
v -8 -16 0
v -8 -15 0
v -7 -15 0
v -8 -16 0
v -9 -16 0
v -9 -15 0
v -8 -15 0
v -9 -16 0
v -10 -16 0
v -10 -15 0
v -9 -15 0
v -10 -16 0
v -11 -16 0
v -11 -15 0
v -10 -15 0
v -11 -16 0
v -12 -16 0
v -12 -15 0
v -11 -15 0
v -12 -16 0
v -13 -16 0
v -13 -15 0
v -12 -15 0
v -13 -16 0
v -14 -16 0
v -14 -15 0
v -13 -15 0
v -14 -16 0
v -15 -16 0
v -15 -15 0
v -14 -15 0
v -15 -16 0
v -16 -16 0
v -16 -15 0
v -15 -15 0
v -16 -16 0
v -17 -16 0
v -17 -15 0
v -16 -15 0
v -17 -16 0
v -18 -16 0
v -18 -15 0
v -17 -15 0
v -18 -16 0
v -19 -16 0
v -19 -15 0
v -18 -15 0
v -19 -16 0
v -20 -16 0
v -20 -15 0
v -19 -15 0
v -20 -16 0
v -21 -16 0
v -21 -15 0
v -20 -15 0
v -21 -16 0
v -22 -16 0
v -22 -15 0
v -21 -15 0
v -22 -16 0
v -23 -16 0
v -23 -15 0
v -22 -15 0
v -23 -16 0
v -24 -16 0
v -24 -15 0
v -23 -15 0
v -24 -16 0
v -25 -16 0
v -25 -15 0
v -24 -15 0
v -26 -16 0
v -27 -16 0
v -27 -15 0
v -26 -15 0
v -27 -16 0
v -28 -16 0
v -28 -15 0
v -27 -15 0
v -28 -16 0
v -29 -16 0
v -29 -15 0
v -28 -15 0
v -29 -16 0
v -30 -16 0
v -30 -15 0
v -29 -15 0
v -30 -16 0
v -31 -16 0
v -31 -15 0
v -30 -15 0
v -31 -16 0
v -32 -16 0
v -32 -15 0
v -31 -15 0
v -32 -16 0
v -33 -16 0
v -33 -15 0
v -32 -15 0
v -33 -16 0
v -34 -16 0
v -34 -15 0
v -33 -15 0
v -34 -16 0
v -35 -16 0
v -35 -15 0
v -34 -15 0
v -35 -16 0
v -36 -16 0
v -36 -15 0
v -35 -15 0
v -36 -16 0
v -37 -16 0
v -37 -15 0
v -36 -15 0
v -37 -16 0
v -38 -16 0
v -38 -15 0
v -37 -15 0
v -38 -16 0
v -39 -16 0
v -39 -15 0
v -38 -15 0
v -39 -16 0
v -40 -16 0
v -40 -15 0
v -39 -15 0
v -40 -16 0
v -41 -16 0
v -41 -15 0
v -40 -15 0
v -41 -16 0
v -42 -16 0
v -42 -15 0
v -41 -15 0
v -42 -16 0
v -43 -16 0
v -43 -15 0
v -42 -15 0
v -43 -16 0
v -44 -16 0
v -44 -15 0
v -43 -15 0
v -44 -16 0
v -45 -16 0
v -45 -15 0
v -44 -15 0
v -45 -16 0
v -46 -16 0
v -46 -15 0
v -45 -15 0
v -46 -16 0
v -47 -16 0
v -47 -15 0
v -46 -15 0
v -47 -16 0
v -48 -16 0
v -48 -15 0
v -47 -15 0
v -48 -16 0
v -49 -16 0
v -49 -15 0
v -48 -15 0
v -49 -16 0
v -50 -16 0
v -50 -15 0
v -49 -15 0
v -50 -16 0
v -51 -16 0
v -51 -15 0
v -50 -15 0
v -52 -16 0
v -53 -16 0
v -53 -15 0
v -52 -15 0
v -53 -16 0
v -54 -16 0
v -54 -15 0
v -53 -15 0
v -54 -16 0
v -55 -16 0
v -55 -15 0
v -54 -15 0
v -55 -16 0
v -56 -16 0
v -56 -15 0
v -55 -15 0
v -56 -16 0
v -57 -16 0
v -57 -15 0
v -56 -15 0
v -57 -16 0
v -58 -16 0
v -58 -15 0
v -57 -15 0
v -58 -16 0
v -59 -16 0
v -59 -15 0
v -58 -15 0
v -59 -16 0
v -60 -16 0
v -60 -15 0
v -59 -15 0
v -60 -16 0
v -61 -16 0
v -61 -15 0
v -60 -15 0
v -61 -16 0
v -62 -16 0
v -62 -15 0
v -61 -15 0
v -62 -16 0
v -63 -16 0
v -63 -15 0
v -62 -15 0
v -63 -16 0
v -64 -16 0
v -64 -15 0
v -63 -15 0
v -64 -16 0
v -65 -16 0
v -65 -15 0
v -64 -15 0
v -65 -16 0
v -66 -16 0
v -66 -15 0
v -65 -15 0
v -66 -16 0
v -67 -16 0
v -67 -15 0
v -66 -15 0
v -67 -16 0
v -68 -16 0
v -68 -15 0
v -67 -15 0
v -68 -16 0
v -69 -16 0
v -69 -15 0
v -68 -15 0
v -69 -16 0
v -70 -16 0
v -70 -15 0
v -69 -15 0
v -70 -16 0
v -71 -16 0
v -71 -15 0
v -70 -15 0
v -71 -16 0
v -72 -16 0
v -72 -15 0
v -71 -15 0
v -72 -16 0
v -73 -16 0
v -73 -15 0
v -72 -15 0
v -73 -16 0
v -74 -16 0
v -74 -15 0
v -73 -15 0
v -74 -16 0
v -75 -16 0
v -75 -15 0
v -74 -15 0
v 0 -17 0
v -1 -17 0
v -1 -16 0
v 0 -16 0
v -1 -17 0
v -2 -17 0
v -2 -16 0
v -1 -16 0
v -2 -17 0
v -3 -17 0
v -3 -16 0
v -2 -16 0
v -3 -17 0
v -4 -17 0
v -4 -16 0
v -3 -16 0
v -4 -17 0
v -5 -17 0
v -5 -16 0
v -4 -16 0
v -5 -17 0
v -6 -17 0
v -6 -16 0
v -5 -16 0
v -6 -17 0
v -7 -17 0
v -7 -16 0
v -6 -16 0
v -7 -17 0
v -8 -17 0
v -8 -16 0
v -7 -16 0
v -8 -17 0
v -9 -17 0
v -9 -16 0
v -8 -16 0
v -9 -17 0
v -10 -17 0
v -10 -16 0
v -9 -16 0
v -10 -17 0
v -11 -17 0
v -11 -16 0
v -10 -16 0
v -11 -17 0
v -12 -17 0
v -12 -16 0
v -11 -16 0
v -12 -17 0
v -13 -17 0
v -13 -16 0
v -12 -16 0
v -13 -17 0
v -14 -17 0
v -14 -16 0
v -13 -16 0
v -14 -17 0
v -15 -17 0
v -15 -16 0
v -14 -16 0
v -15 -17 0
v -16 -17 0
v -16 -16 0
v -15 -16 0
v -16 -17 0
v -17 -17 0
v -17 -16 0
v -16 -16 0
v -17 -17 0
v -18 -17 0
v -18 -16 0
v -17 -16 0
v -18 -17 0
v -19 -17 0
v -19 -16 0
v -18 -16 0
v -19 -17 0
v -20 -17 0
v -20 -16 0
v -19 -16 0
v -20 -17 0
v -21 -17 0
v -21 -16 0
v -20 -16 0
v -21 -17 0
v -22 -17 0
v -22 -16 0
v -21 -16 0
v -22 -17 0
v -23 -17 0
v -23 -16 0
v -22 -16 0
v -23 -17 0
v -24 -17 0
v -24 -16 0
v -23 -16 0
v -24 -17 0
v -25 -17 0
v -25 -16 0
v -24 -16 0
v -26 -17 0
v -27 -17 0
v -27 -16 0
v -26 -16 0
v -27 -17 0
v -28 -17 0
v -28 -16 0
v -27 -16 0
v -28 -17 0
v -29 -17 0
v -29 -16 0
v -28 -16 0
v -29 -17 0
v -30 -17 0
v -30 -16 0
v -29 -16 0
v -30 -17 0
v -31 -17 0
v -31 -16 0
v -30 -16 0
v -31 -17 0
v -32 -17 0
v -32 -16 0
v -31 -16 0
v -32 -17 0
v -33 -17 0
v -33 -16 0
v -32 -16 0
v -33 -17 0
v -34 -17 0
v -34 -16 0
v -33 -16 0
v -34 -17 0
v -35 -17 0
v -35 -16 0
v -34 -16 0
v -35 -17 0
v -36 -17 0
v -36 -16 0
v -35 -16 0
v -36 -17 0
v -37 -17 0
v -37 -16 0
v -36 -16 0
v -37 -17 0
v -38 -17 0
v -38 -16 0
v -37 -16 0
v -38 -17 0
v -39 -17 0
v -39 -16 0
v -38 -16 0
v -39 -17 0
v -40 -17 0
v -40 -16 0
v -39 -16 0
v -40 -17 0
v -41 -17 0
v -41 -16 0
v -40 -16 0
v -41 -17 0
v -42 -17 0
v -42 -16 0
v -41 -16 0
v -42 -17 0
v -43 -17 0
v -43 -16 0
v -42 -16 0
v -43 -17 0
v -44 -17 0
v -44 -16 0
v -43 -16 0
v -44 -17 0
v -45 -17 0
v -45 -16 0
v -44 -16 0
v -45 -17 0
v -46 -17 0
v -46 -16 0
v -45 -16 0
v -46 -17 0
v -47 -17 0
v -47 -16 0
v -46 -16 0
v -47 -17 0
v -48 -17 0
v -48 -16 0
v -47 -16 0
v -48 -17 0
v -49 -17 0
v -49 -16 0
v -48 -16 0
v -49 -17 0
v -50 -17 0
v -50 -16 0
v -49 -16 0
v -50 -17 0
v -51 -17 0
v -51 -16 0
v -50 -16 0
v -52 -17 0
v -53 -17 0
v -53 -16 0
v -52 -16 0
v -53 -17 0
v -54 -17 0
v -54 -16 0
v -53 -16 0
v -54 -17 0
v -55 -17 0
v -55 -16 0
v -54 -16 0
v -55 -17 0
v -56 -17 0
v -56 -16 0
v -55 -16 0
v -56 -17 0
v -57 -17 0
v -57 -16 0
v -56 -16 0
v -57 -17 0
v -58 -17 0
v -58 -16 0
v -57 -16 0
v -58 -17 0
v -59 -17 0
v -59 -16 0
v -58 -16 0
v -59 -17 0
v -60 -17 0
v -60 -16 0
v -59 -16 0
v -60 -17 0
v -61 -17 0
v -61 -16 0
v -60 -16 0
v -61 -17 0
v -62 -17 0
v -62 -16 0
v -61 -16 0
v -62 -17 0
v -63 -17 0
v -63 -16 0
v -62 -16 0
v -63 -17 0
v -64 -17 0
v -64 -16 0
v -63 -16 0
v -64 -17 0
v -65 -17 0
v -65 -16 0
v -64 -16 0
v -65 -17 0
v -66 -17 0
v -66 -16 0
v -65 -16 0
v -66 -17 0
v -67 -17 0
v -67 -16 0
v -66 -16 0
v -67 -17 0
v -68 -17 0
v -68 -16 0
v -67 -16 0
v -68 -17 0
v -69 -17 0
v -69 -16 0
v -68 -16 0
v -69 -17 0
v -70 -17 0
v -70 -16 0
v -69 -16 0
v -70 -17 0
v -71 -17 0
v -71 -16 0
v -70 -16 0
v -71 -17 0
v -72 -17 0
v -72 -16 0
v -71 -16 0
v -72 -17 0
v -73 -17 0
v -73 -16 0
v -72 -16 0
v -73 -17 0
v -74 -17 0
v -74 -16 0
v -73 -16 0
v -74 -17 0
v -75 -17 0
v -75 -16 0
v -74 -16 0
v 0 -18 0
v -1 -18 0
v -1 -17 0
v 0 -17 0
v -1 -18 0
v -2 -18 0
v -2 -17 0
v -1 -17 0
v -2 -18 0
v -3 -18 0
v -3 -17 0
v -2 -17 0
v -3 -18 0
v -4 -18 0
v -4 -17 0
v -3 -17 0
v -4 -18 0
v -5 -18 0
v -5 -17 0
v -4 -17 0
v -5 -18 0
v -6 -18 0
v -6 -17 0
v -5 -17 0
v -6 -18 0
v -7 -18 0
v -7 -17 0
v -6 -17 0
v -7 -18 0
v -8 -18 0
v -8 -17 0
v -7 -17 0
v -8 -18 0
v -9 -18 0
v -9 -17 0
v -8 -17 0
v -9 -18 0
v -10 -18 0
v -10 -17 0
v -9 -17 0
v -10 -18 0
v -11 -18 0
v -11 -17 0
v -10 -17 0
v -11 -18 0
v -12 -18 0
v -12 -17 0
v -11 -17 0
v -12 -18 0
v -13 -18 0
v -13 -17 0
v -12 -17 0
v -13 -18 0
v -14 -18 0
v -14 -17 0
v -13 -17 0
v -14 -18 0
v -15 -18 0
v -15 -17 0
v -14 -17 0
v -15 -18 0
v -16 -18 0
v -16 -17 0
v -15 -17 0
v -16 -18 0
v -17 -18 0
v -17 -17 0
v -16 -17 0
v -17 -18 0
v -18 -18 0
v -18 -17 0
v -17 -17 0
v -18 -18 0
v -19 -18 0
v -19 -17 0
v -18 -17 0
v -19 -18 0
v -20 -18 0
v -20 -17 0
v -19 -17 0
v -20 -18 0
v -21 -18 0
v -21 -17 0
v -20 -17 0
v -21 -18 0
v -22 -18 0
v -22 -17 0
v -21 -17 0
v -22 -18 0
v -23 -18 0
v -23 -17 0
v -22 -17 0
v -23 -18 0
v -24 -18 0
v -24 -17 0
v -23 -17 0
v -24 -18 0
v -25 -18 0
v -25 -17 0
v -24 -17 0
v -26 -18 0
v -27 -18 0
v -27 -17 0
v -26 -17 0
v -27 -18 0
v -28 -18 0
v -28 -17 0
v -27 -17 0
v -28 -18 0
v -29 -18 0
v -29 -17 0
v -28 -17 0
v -29 -18 0
v -30 -18 0
v -30 -17 0
v -29 -17 0
v -30 -18 0
v -31 -18 0
v -31 -17 0
v -30 -17 0
v -31 -18 0
v -32 -18 0
v -32 -17 0
v -31 -17 0
v -32 -18 0
v -33 -18 0
v -33 -17 0
v -32 -17 0
v -33 -18 0
v -34 -18 0
v -34 -17 0
v -33 -17 0
v -34 -18 0
v -35 -18 0
v -35 -17 0
v -34 -17 0
v -35 -18 0
v -36 -18 0
v -36 -17 0
v -35 -17 0
v -36 -18 0
v -37 -18 0
v -37 -17 0
v -36 -17 0
v -37 -18 0
v -38 -18 0
v -38 -17 0
v -37 -17 0
v -38 -18 0
v -39 -18 0
v -39 -17 0
v -38 -17 0
v -39 -18 0
v -40 -18 0
v -40 -17 0
v -39 -17 0
v -40 -18 0
v -41 -18 0
v -41 -17 0
v -40 -17 0
v -41 -18 0
v -42 -18 0
v -42 -17 0
v -41 -17 0
v -42 -18 0
v -43 -18 0
v -43 -17 0
v -42 -17 0
v -43 -18 0
v -44 -18 0
v -44 -17 0
v -43 -17 0
v -44 -18 0
v -45 -18 0
v -45 -17 0
v -44 -17 0
v -45 -18 0
v -46 -18 0
v -46 -17 0
v -45 -17 0
v -46 -18 0
v -47 -18 0
v -47 -17 0
v -46 -17 0
v -47 -18 0
v -48 -18 0
v -48 -17 0
v -47 -17 0
v -48 -18 0
v -49 -18 0
v -49 -17 0
v -48 -17 0
v -49 -18 0
v -50 -18 0
v -50 -17 0
v -49 -17 0
v -50 -18 0
v -51 -18 0
v -51 -17 0
v -50 -17 0
v -52 -18 0
v -53 -18 0
v -53 -17 0
v -52 -17 0
v -53 -18 0
v -54 -18 0
v -54 -17 0
v -53 -17 0
v -54 -18 0
v -55 -18 0
v -55 -17 0
v -54 -17 0
v -55 -18 0
v -56 -18 0
v -56 -17 0
v -55 -17 0
v -56 -18 0
v -57 -18 0
v -57 -17 0
v -56 -17 0
v -57 -18 0
v -58 -18 0
v -58 -17 0
v -57 -17 0
v -58 -18 0
v -59 -18 0
v -59 -17 0
v -58 -17 0
v -59 -18 0
v -60 -18 0
v -60 -17 0
v -59 -17 0
v -60 -18 0
v -61 -18 0
v -61 -17 0
v -60 -17 0
v -61 -18 0
v -62 -18 0
v -62 -17 0
v -61 -17 0
v -62 -18 0
v -63 -18 0
v -63 -17 0
v -62 -17 0
v -63 -18 0
v -64 -18 0
v -64 -17 0
v -63 -17 0
v -64 -18 0
v -65 -18 0
v -65 -17 0
v -64 -17 0
v -65 -18 0
v -66 -18 0
v -66 -17 0
v -65 -17 0
v -66 -18 0
v -67 -18 0
v -67 -17 0
v -66 -17 0
v -67 -18 0
v -68 -18 0
v -68 -17 0
v -67 -17 0
v -68 -18 0
v -69 -18 0
v -69 -17 0
v -68 -17 0
v -69 -18 0
v -70 -18 0
v -70 -17 0
v -69 -17 0
v -70 -18 0
v -71 -18 0
v -71 -17 0
v -70 -17 0
v -71 -18 0
v -72 -18 0
v -72 -17 0
v -71 -17 0
v -72 -18 0
v -73 -18 0
v -73 -17 0
v -72 -17 0
v -73 -18 0
v -74 -18 0
v -74 -17 0
v -73 -17 0
v -74 -18 0
v -75 -18 0
v -75 -17 0
v -74 -17 0

# Texture cooridinates (Count = 22)
vt 0 0.9642857
vt 0.01190476 0.9642857
vt 0.01190476 1
vt 0 1
vt 0.02380952 0.9642857
vt 0.02380952 1
vt 0.03571429 0.9642857
vt 0.03571429 1
vt 0.04761905 0.9642857
vt 0.04761905 1
vt 0 0.9285714
vt 0.01190476 0.9285714
vt 0.02380952 0.9285714
vt 0.03571429 0.9285714
vt 0.07142857 0.9285714
vt 0.08333334 0.9285714
vt 0.08333334 0.9642857
vt 0.07142857 0.9642857
vt 0.0952381 0.9285714
vt 0.0952381 0.9642857
vt 0.1071429 0.9285714
vt 0.1071429 0.9642857

# Normal
vn 0 0 -1

# Mesh description
g finaltilemap_mesh_0001

# Faces
f 1/1/1 2/2/1 3/3/1 4/4/1
f 5/1/1 6/2/1 7/3/1 8/4/1
f 9/1/1 10/2/1 11/3/1 12/4/1
f 13/1/1 14/2/1 15/3/1 16/4/1
f 17/1/1 18/2/1 19/3/1 20/4/1
f 21/1/1 22/2/1 23/3/1 24/4/1
f 25/1/1 26/2/1 27/3/1 28/4/1
f 29/1/1 30/2/1 31/3/1 32/4/1
f 33/1/1 34/2/1 35/3/1 36/4/1
f 37/1/1 38/2/1 39/3/1 40/4/1
f 41/2/1 42/5/1 43/6/1 44/3/1
f 45/5/1 46/7/1 47/8/1 48/6/1
f 49/7/1 50/9/1 51/10/1 52/8/1
f 53/1/1 54/2/1 55/3/1 56/4/1
f 57/2/1 58/5/1 59/6/1 60/3/1
f 61/5/1 62/7/1 63/8/1 64/6/1
f 65/7/1 66/9/1 67/10/1 68/8/1
f 69/1/1 70/2/1 71/3/1 72/4/1
f 73/2/1 74/5/1 75/6/1 76/3/1
f 77/5/1 78/7/1 79/8/1 80/6/1
f 81/7/1 82/9/1 83/10/1 84/8/1
f 85/1/1 86/2/1 87/3/1 88/4/1
f 89/2/1 90/5/1 91/6/1 92/3/1
f 93/5/1 94/7/1 95/8/1 96/6/1
f 97/7/1 98/9/1 99/10/1 100/8/1
f 101/11/1 102/12/1 103/2/1 104/1/1
f 105/12/1 106/13/1 107/5/1 108/2/1
f 109/13/1 110/14/1 111/7/1 112/5/1
f 113/11/1 114/12/1 115/2/1 116/1/1
f 117/12/1 118/13/1 119/5/1 120/2/1
f 121/13/1 122/14/1 123/7/1 124/5/1
f 125/11/1 126/12/1 127/2/1 128/1/1
f 129/12/1 130/13/1 131/5/1 132/2/1
f 133/13/1 134/14/1 135/7/1 136/5/1
f 137/11/1 138/12/1 139/2/1 140/1/1
f 141/12/1 142/13/1 143/5/1 144/2/1
f 145/13/1 146/14/1 147/7/1 148/5/1
f 149/11/1 150/12/1 151/2/1 152/1/1
f 153/12/1 154/13/1 155/5/1 156/2/1
f 157/13/1 158/14/1 159/7/1 160/5/1
f 161/11/1 162/12/1 163/2/1 164/1/1
f 165/12/1 166/13/1 167/5/1 168/2/1
f 169/13/1 170/14/1 171/7/1 172/5/1
f 173/11/1 174/12/1 175/2/1 176/1/1
f 177/12/1 178/13/1 179/5/1 180/2/1
f 181/13/1 182/14/1 183/7/1 184/5/1
f 185/11/1 186/12/1 187/2/1 188/1/1
f 189/11/1 190/12/1 191/2/1 192/1/1
f 193/12/1 194/13/1 195/5/1 196/2/1
f 197/13/1 198/14/1 199/7/1 200/5/1
f 201/1/1 202/2/1 203/3/1 204/4/1
f 205/1/1 206/2/1 207/3/1 208/4/1
f 209/2/1 210/5/1 211/6/1 212/3/1
f 213/5/1 214/7/1 215/8/1 216/6/1
f 217/7/1 218/9/1 219/10/1 220/8/1
f 221/1/1 222/2/1 223/3/1 224/4/1
f 225/2/1 226/5/1 227/6/1 228/3/1
f 229/5/1 230/7/1 231/8/1 232/6/1
f 233/7/1 234/9/1 235/10/1 236/8/1
f 237/1/1 238/2/1 239/3/1 240/4/1
f 241/2/1 242/5/1 243/6/1 244/3/1
f 245/5/1 246/7/1 247/8/1 248/6/1
f 249/7/1 250/9/1 251/10/1 252/8/1
f 253/1/1 254/2/1 255/3/1 256/4/1
f 257/2/1 258/5/1 259/6/1 260/3/1
f 261/5/1 262/7/1 263/8/1 264/6/1
f 265/7/1 266/9/1 267/10/1 268/8/1
f 269/1/1 270/2/1 271/3/1 272/4/1
f 273/2/1 274/5/1 275/6/1 276/3/1
f 277/5/1 278/7/1 279/8/1 280/6/1
f 281/7/1 282/9/1 283/10/1 284/8/1
f 285/1/1 286/2/1 287/3/1 288/4/1
f 289/2/1 290/5/1 291/6/1 292/3/1
f 293/5/1 294/7/1 295/8/1 296/6/1
f 297/7/1 298/9/1 299/10/1 300/8/1
f 301/15/1 302/16/1 303/17/1 304/18/1
f 305/16/1 306/19/1 307/20/1 308/17/1
f 309/19/1 310/21/1 311/22/1 312/20/1
f 313/15/1 314/16/1 315/17/1 316/18/1
f 317/16/1 318/19/1 319/20/1 320/17/1
f 321/19/1 322/21/1 323/22/1 324/20/1
f 325/15/1 326/16/1 327/17/1 328/18/1
f 329/15/1 330/16/1 331/17/1 332/18/1
f 333/16/1 334/19/1 335/20/1 336/17/1
f 337/19/1 338/21/1 339/22/1 340/20/1
f 341/15/1 342/16/1 343/17/1 344/18/1
f 345/15/1 346/16/1 347/17/1 348/18/1
f 349/15/1 350/16/1 351/17/1 352/18/1
f 353/16/1 354/19/1 355/20/1 356/17/1
f 357/19/1 358/21/1 359/22/1 360/20/1
f 361/15/1 362/16/1 363/17/1 364/18/1
f 365/16/1 366/19/1 367/20/1 368/17/1
f 369/19/1 370/21/1 371/22/1 372/20/1
f 373/16/1 374/19/1 375/20/1 376/17/1
f 377/19/1 378/21/1 379/22/1 380/20/1
f 381/15/1 382/16/1 383/17/1 384/18/1
f 385/16/1 386/19/1 387/20/1 388/17/1
f 389/19/1 390/21/1 391/22/1 392/20/1
f 393/16/1 394/19/1 395/20/1 396/17/1
f 397/19/1 398/21/1 399/22/1 400/20/1
f 401/1/1 402/2/1 403/3/1 404/4/1
f 405/2/1 406/5/1 407/6/1 408/3/1
f 409/5/1 410/7/1 411/8/1 412/6/1
f 413/7/1 414/9/1 415/10/1 416/8/1
f 417/1/1 418/2/1 419/3/1 420/4/1
f 421/1/1 422/2/1 423/3/1 424/4/1
f 425/1/1 426/2/1 427/3/1 428/4/1
f 429/1/1 430/2/1 431/3/1 432/4/1
f 433/1/1 434/2/1 435/3/1 436/4/1
f 437/1/1 438/2/1 439/3/1 440/4/1
f 441/1/1 442/2/1 443/3/1 444/4/1
f 445/1/1 446/2/1 447/3/1 448/4/1
f 449/1/1 450/2/1 451/3/1 452/4/1
f 453/1/1 454/2/1 455/3/1 456/4/1
f 457/1/1 458/2/1 459/3/1 460/4/1
f 461/1/1 462/2/1 463/3/1 464/4/1
f 465/1/1 466/2/1 467/3/1 468/4/1
f 469/1/1 470/2/1 471/3/1 472/4/1
f 473/1/1 474/2/1 475/3/1 476/4/1
f 477/1/1 478/2/1 479/3/1 480/4/1
f 481/2/1 482/5/1 483/6/1 484/3/1
f 485/5/1 486/7/1 487/8/1 488/6/1
f 489/7/1 490/9/1 491/10/1 492/8/1
f 493/11/1 494/12/1 495/2/1 496/1/1
f 497/12/1 498/13/1 499/5/1 500/2/1
f 501/13/1 502/14/1 503/7/1 504/5/1
f 505/11/1 506/12/1 507/2/1 508/1/1
f 509/12/1 510/13/1 511/5/1 512/2/1
f 513/13/1 514/14/1 515/7/1 516/5/1
f 517/11/1 518/12/1 519/2/1 520/1/1
f 521/12/1 522/13/1 523/5/1 524/2/1
f 525/13/1 526/14/1 527/7/1 528/5/1
f 529/11/1 530/12/1 531/2/1 532/1/1
f 533/12/1 534/13/1 535/5/1 536/2/1
f 537/13/1 538/14/1 539/7/1 540/5/1
f 541/13/1 542/14/1 543/7/1 544/5/1
f 545/11/1 546/12/1 547/2/1 548/1/1
f 549/12/1 550/13/1 551/5/1 552/2/1
f 553/13/1 554/14/1 555/7/1 556/5/1
f 557/11/1 558/12/1 559/2/1 560/1/1
f 561/12/1 562/13/1 563/5/1 564/2/1
f 565/13/1 566/14/1 567/7/1 568/5/1
f 569/11/1 570/12/1 571/2/1 572/1/1
f 573/12/1 574/13/1 575/5/1 576/2/1
f 577/13/1 578/14/1 579/7/1 580/5/1
f 581/11/1 582/12/1 583/2/1 584/1/1
f 585/12/1 586/13/1 587/5/1 588/2/1
f 589/13/1 590/14/1 591/7/1 592/5/1
f 593/15/1 594/16/1 595/17/1 596/18/1
f 597/15/1 598/16/1 599/17/1 600/18/1
f 601/15/1 602/16/1 603/17/1 604/18/1
f 605/15/1 606/16/1 607/17/1 608/18/1
f 609/15/1 610/16/1 611/17/1 612/18/1
f 613/15/1 614/16/1 615/17/1 616/18/1
f 617/16/1 618/19/1 619/20/1 620/17/1
f 621/15/1 622/16/1 623/17/1 624/18/1
f 625/16/1 626/19/1 627/20/1 628/17/1
f 629/19/1 630/21/1 631/22/1 632/20/1
f 633/15/1 634/16/1 635/17/1 636/18/1
f 637/16/1 638/19/1 639/20/1 640/17/1
f 641/19/1 642/21/1 643/22/1 644/20/1
f 645/16/1 646/19/1 647/20/1 648/17/1
f 649/15/1 650/16/1 651/17/1 652/18/1
f 653/16/1 654/19/1 655/20/1 656/17/1
f 657/19/1 658/21/1 659/22/1 660/20/1
f 661/16/1 662/19/1 663/20/1 664/17/1
f 665/19/1 666/21/1 667/22/1 668/20/1
f 669/15/1 670/16/1 671/17/1 672/18/1
f 673/16/1 674/19/1 675/20/1 676/17/1
f 677/19/1 678/21/1 679/22/1 680/20/1
f 681/15/1 682/16/1 683/17/1 684/18/1
f 685/16/1 686/19/1 687/20/1 688/17/1
f 689/19/1 690/21/1 691/22/1 692/20/1
f 693/11/1 694/12/1 695/2/1 696/1/1
f 697/12/1 698/13/1 699/5/1 700/2/1
f 701/13/1 702/14/1 703/7/1 704/5/1
f 705/11/1 706/12/1 707/2/1 708/1/1
f 709/12/1 710/13/1 711/5/1 712/2/1
f 713/13/1 714/14/1 715/7/1 716/5/1
f 717/11/1 718/12/1 719/2/1 720/1/1
f 721/12/1 722/13/1 723/5/1 724/2/1
f 725/13/1 726/14/1 727/7/1 728/5/1
f 729/11/1 730/12/1 731/2/1 732/1/1
f 733/12/1 734/13/1 735/5/1 736/2/1
f 737/13/1 738/14/1 739/7/1 740/5/1
f 741/11/1 742/12/1 743/2/1 744/1/1
f 745/12/1 746/13/1 747/5/1 748/2/1
f 749/13/1 750/14/1 751/7/1 752/5/1
f 753/11/1 754/12/1 755/2/1 756/1/1
f 757/12/1 758/13/1 759/5/1 760/2/1
f 761/13/1 762/14/1 763/7/1 764/5/1
f 765/11/1 766/12/1 767/2/1 768/1/1
f 769/12/1 770/13/1 771/5/1 772/2/1
f 773/11/1 774/12/1 775/2/1 776/1/1
f 777/12/1 778/13/1 779/5/1 780/2/1
f 781/13/1 782/14/1 783/7/1 784/5/1
f 785/15/1 786/16/1 787/17/1 788/18/1
f 789/16/1 790/19/1 791/20/1 792/17/1
f 793/19/1 794/21/1 795/22/1 796/20/1
f 797/15/1 798/16/1 799/17/1 800/18/1
f 801/16/1 802/19/1 803/20/1 804/17/1
f 805/19/1 806/21/1 807/22/1 808/20/1
f 809/15/1 810/16/1 811/17/1 812/18/1
f 813/16/1 814/19/1 815/20/1 816/17/1
f 817/19/1 818/21/1 819/22/1 820/20/1
f 821/15/1 822/16/1 823/17/1 824/18/1
f 825/16/1 826/19/1 827/20/1 828/17/1
f 829/19/1 830/21/1 831/22/1 832/20/1
f 833/15/1 834/16/1 835/17/1 836/18/1
f 837/16/1 838/19/1 839/20/1 840/17/1
f 841/19/1 842/21/1 843/22/1 844/20/1
f 845/15/1 846/16/1 847/17/1 848/18/1
f 849/16/1 850/19/1 851/20/1 852/17/1
f 853/19/1 854/21/1 855/22/1 856/20/1
f 857/15/1 858/16/1 859/17/1 860/18/1
f 861/16/1 862/19/1 863/20/1 864/17/1
f 865/19/1 866/21/1 867/22/1 868/20/1
f 869/15/1 870/16/1 871/17/1 872/18/1
f 873/16/1 874/19/1 875/20/1 876/17/1
f 877/15/1 878/16/1 879/17/1 880/18/1
f 881/16/1 882/19/1 883/20/1 884/17/1
f 885/11/1 886/12/1 887/2/1 888/1/1
f 889/12/1 890/13/1 891/5/1 892/2/1
f 893/13/1 894/14/1 895/7/1 896/5/1
f 897/11/1 898/12/1 899/2/1 900/1/1
f 901/12/1 902/13/1 903/5/1 904/2/1
f 905/13/1 906/14/1 907/7/1 908/5/1
f 909/11/1 910/12/1 911/2/1 912/1/1
f 913/12/1 914/13/1 915/5/1 916/2/1
f 917/13/1 918/14/1 919/7/1 920/5/1
f 921/11/1 922/12/1 923/2/1 924/1/1
f 925/12/1 926/13/1 927/5/1 928/2/1
f 929/13/1 930/14/1 931/7/1 932/5/1
f 933/11/1 934/12/1 935/2/1 936/1/1
f 937/12/1 938/13/1 939/5/1 940/2/1
f 941/11/1 942/12/1 943/2/1 944/1/1
f 945/12/1 946/13/1 947/5/1 948/2/1
f 949/13/1 950/14/1 951/7/1 952/5/1
f 953/11/1 954/12/1 955/2/1 956/1/1
f 957/12/1 958/13/1 959/5/1 960/2/1
f 961/13/1 962/14/1 963/7/1 964/5/1
f 965/11/1 966/12/1 967/2/1 968/1/1
f 969/12/1 970/13/1 971/5/1 972/2/1
f 973/11/1 974/12/1 975/2/1 976/1/1
f 977/12/1 978/13/1 979/5/1 980/2/1
f 981/13/1 982/14/1 983/7/1 984/5/1
f 985/15/1 986/16/1 987/17/1 988/18/1
f 989/16/1 990/19/1 991/20/1 992/17/1
f 993/19/1 994/21/1 995/22/1 996/20/1
f 997/15/1 998/16/1 999/17/1 1000/18/1
f 1001/16/1 1002/19/1 1003/20/1 1004/17/1
f 1005/19/1 1006/21/1 1007/22/1 1008/20/1
f 1009/15/1 1010/16/1 1011/17/1 1012/18/1
f 1013/16/1 1014/19/1 1015/20/1 1016/17/1
f 1017/19/1 1018/21/1 1019/22/1 1020/20/1
f 1021/15/1 1022/16/1 1023/17/1 1024/18/1
f 1025/16/1 1026/19/1 1027/20/1 1028/17/1
f 1029/19/1 1030/21/1 1031/22/1 1032/20/1
f 1033/15/1 1034/16/1 1035/17/1 1036/18/1
f 1037/16/1 1038/19/1 1039/20/1 1040/17/1
f 1041/19/1 1042/21/1 1043/22/1 1044/20/1
f 1045/15/1 1046/16/1 1047/17/1 1048/18/1
f 1049/16/1 1050/19/1 1051/20/1 1052/17/1
f 1053/19/1 1054/21/1 1055/22/1 1056/20/1
f 1057/15/1 1058/16/1 1059/17/1 1060/18/1
f 1061/16/1 1062/19/1 1063/20/1 1064/17/1
f 1065/15/1 1066/16/1 1067/17/1 1068/18/1
f 1069/16/1 1070/19/1 1071/20/1 1072/17/1
f 1073/19/1 1074/21/1 1075/22/1 1076/20/1

