# Tiled2Unity generated file. Do not modify by hand.
# Wavefront file for 'finaltilemap_mesh_0002.obj'

# Vertices (Count = 164)
v -27 -13 0
v -28 -13 0
v -28 -12 0
v -27 -12 0
v -28 -13 0
v -29 -13 0
v -29 -12 0
v -28 -12 0
v -29 -13 0
v -30 -13 0
v -30 -12 0
v -29 -12 0
v -30 -13 0
v -31 -13 0
v -31 -12 0
v -30 -12 0
v -31 -13 0
v -32 -13 0
v -32 -12 0
v -31 -12 0
v -32 -13 0
v -33 -13 0
v -33 -12 0
v -32 -12 0
v -34 -13 0
v -35 -13 0
v -35 -12 0
v -34 -12 0
v -35 -13 0
v -36 -13 0
v -36 -12 0
v -35 -12 0
v -36 -13 0
v -37 -13 0
v -37 -12 0
v -36 -12 0
v -37 -13 0
v -38 -13 0
v -38 -12 0
v -37 -12 0
v -38 -13 0
v -39 -13 0
v -39 -12 0
v -38 -12 0
v -45 -13 0
v -46 -13 0
v -46 -12 0
v -45 -12 0
v -49 -13 0
v -50 -13 0
v -50 -12 0
v -49 -12 0
v 0 -15 0
v -1 -15 0
v -1 -14 0
v 0 -14 0
v -1 -15 0
v -2 -15 0
v -2 -14 0
v -1 -14 0
v -2 -15 0
v -3 -15 0
v -3 -14 0
v -2 -14 0
v -3 -15 0
v -4 -15 0
v -4 -14 0
v -3 -14 0
v -4 -15 0
v -5 -15 0
v -5 -14 0
v -4 -14 0
v -5 -15 0
v -6 -15 0
v -6 -14 0
v -5 -14 0
v -6 -15 0
v -7 -15 0
v -7 -14 0
v -6 -14 0
v -7 -15 0
v -8 -15 0
v -8 -14 0
v -7 -14 0
v -9 -15 0
v -10 -15 0
v -10 -14 0
v -9 -14 0
v -11 -15 0
v -12 -15 0
v -12 -14 0
v -11 -14 0
v -12 -15 0
v -13 -15 0
v -13 -14 0
v -12 -14 0
v -13 -15 0
v -14 -15 0
v -14 -14 0
v -13 -14 0
v -16 -15 0
v -17 -15 0
v -17 -14 0
v -16 -14 0
v -24 -15 0
v -25 -15 0
v -25 -14 0
v -24 -14 0
v -53 -15 0
v -54 -15 0
v -54 -14 0
v -53 -14 0
v -56 -15 0
v -57 -15 0
v -57 -14 0
v -56 -14 0
v -57 -15 0
v -58 -15 0
v -58 -14 0
v -57 -14 0
v -58 -15 0
v -59 -15 0
v -59 -14 0
v -58 -14 0
v -59 -15 0
v -60 -15 0
v -60 -14 0
v -59 -14 0
v -62 -15 0
v -63 -15 0
v -63 -14 0
v -62 -14 0
v -64 -15 0
v -65 -15 0
v -65 -14 0
v -64 -14 0
v -65 -15 0
v -66 -15 0
v -66 -14 0
v -65 -14 0
v -66 -15 0
v -67 -15 0
v -67 -14 0
v -66 -14 0
v -67 -15 0
v -68 -15 0
v -68 -14 0
v -67 -14 0
v -71 -15 0
v -72 -15 0
v -72 -14 0
v -71 -14 0
v -72 -15 0
v -73 -15 0
v -73 -14 0
v -72 -14 0
v -73 -15 0
v -74 -15 0
v -74 -14 0
v -73 -14 0
v -74 -15 0
v -75 -15 0
v -75 -14 0
v -74 -14 0

# Texture cooridinates (Count = 10)
vt 0.04761905 0.9285714
vt 0.05952381 0.9285714
vt 0.05952381 0.9642857
vt 0.04761905 0.9642857
vt 0.1190476 0.9642857
vt 0.1309524 0.9642857
vt 0.1309524 1
vt 0.1190476 1
vt 0.1428571 0.9642857
vt 0.1428571 1

# Normal
vn 0 0 -1

# Mesh description
g finaltilemap_mesh_0002

# Faces
f 1/1/1 2/2/1 3/3/1 4/4/1
f 5/5/1 6/6/1 7/7/1 8/8/1
f 9/6/1 10/9/1 11/10/1 12/7/1
f 13/6/1 14/9/1 15/10/1 16/7/1
f 17/6/1 18/9/1 19/10/1 20/7/1
f 21/1/1 22/2/1 23/3/1 24/4/1
f 25/6/1 26/9/1 27/10/1 28/7/1
f 29/6/1 30/9/1 31/10/1 32/7/1
f 33/6/1 34/9/1 35/10/1 36/7/1
f 37/6/1 38/9/1 39/10/1 40/7/1
f 41/6/1 42/9/1 43/10/1 44/7/1
f 45/1/1 46/2/1 47/3/1 48/4/1
f 49/1/1 50/2/1 51/3/1 52/4/1
f 53/5/1 54/6/1 55/7/1 56/8/1
f 57/6/1 58/9/1 59/10/1 60/7/1
f 61/6/1 62/9/1 63/10/1 64/7/1
f 65/6/1 66/9/1 67/10/1 68/7/1
f 69/6/1 70/9/1 71/10/1 72/7/1
f 73/6/1 74/9/1 75/10/1 76/7/1
f 77/6/1 78/9/1 79/10/1 80/7/1
f 81/6/1 82/9/1 83/10/1 84/7/1
f 85/1/1 86/2/1 87/3/1 88/4/1
f 89/5/1 90/6/1 91/7/1 92/8/1
f 93/6/1 94/9/1 95/10/1 96/7/1
f 97/6/1 98/9/1 99/10/1 100/7/1
f 101/1/1 102/2/1 103/3/1 104/4/1
f 105/1/1 106/2/1 107/3/1 108/4/1
f 109/1/1 110/2/1 111/3/1 112/4/1
f 113/5/1 114/6/1 115/7/1 116/8/1
f 117/6/1 118/9/1 119/10/1 120/7/1
f 121/6/1 122/9/1 123/10/1 124/7/1
f 125/6/1 126/9/1 127/10/1 128/7/1
f 129/1/1 130/2/1 131/3/1 132/4/1
f 133/6/1 134/9/1 135/10/1 136/7/1
f 137/6/1 138/9/1 139/10/1 140/7/1
f 141/6/1 142/9/1 143/10/1 144/7/1
f 145/6/1 146/9/1 147/10/1 148/7/1
f 149/5/1 150/6/1 151/7/1 152/8/1
f 153/6/1 154/9/1 155/10/1 156/7/1
f 157/6/1 158/9/1 159/10/1 160/7/1
f 161/1/1 162/2/1 163/3/1 164/4/1

